<svg width="32" height="34" viewBox="0 0 32 34" xmlns="http://www.w3.org/2000/svg">
<path d="M10.7032 25.6387C10.7032 25.7677 10.5548 25.871 10.3677 25.871C10.1548 25.8903 10.0065 25.7871 10.0065 25.6387C10.0065 25.5097 10.1548 25.4064 10.3419 25.4064C10.5355 25.3871 10.7032 25.4903 10.7032 25.6387ZM8.69677 25.3484C8.65161 25.4774 8.78065 25.6258 8.97419 25.6645C9.14194 25.729 9.33548 25.6645 9.37419 25.5355C9.4129 25.4064 9.29032 25.2581 9.09677 25.2C8.92903 25.1548 8.74194 25.2194 8.69677 25.3484ZM11.5484 25.2387C11.3613 25.2839 11.2323 25.4065 11.2516 25.5548C11.271 25.6839 11.4387 25.7677 11.6323 25.7226C11.8194 25.6774 11.9484 25.5548 11.929 25.4258C11.9097 25.3032 11.7355 25.2194 11.5484 25.2387ZM15.7935 0.516129C6.84516 0.516129 0 7.30968 0 16.2581C0 23.4129 4.50323 29.5355 10.9355 31.6903C11.7613 31.8387 12.0516 31.329 12.0516 30.9097C12.0516 30.5097 12.0323 28.3032 12.0323 26.9484C12.0323 26.9484 7.51613 27.9161 6.56774 25.0258C6.56774 25.0258 5.83226 23.1484 4.77419 22.6645C4.77419 22.6645 3.29677 21.6516 4.87742 21.671C4.87742 21.671 6.48387 21.8 7.36774 23.3355C8.78064 25.8258 11.1484 25.1097 12.071 24.6839C12.2194 23.6516 12.6387 22.9355 13.1032 22.5097C9.49677 22.1097 5.85806 21.5871 5.85806 15.3806C5.85806 13.6065 6.34839 12.7161 7.38065 11.5806C7.2129 11.1613 6.66452 9.43226 7.54839 7.2C8.89677 6.78064 12 8.94194 12 8.94194C13.2903 8.58064 14.6774 8.39355 16.0516 8.39355C17.4258 8.39355 18.8129 8.58064 20.1032 8.94194C20.1032 8.94194 23.2065 6.77419 24.5548 7.2C25.4387 9.43871 24.8903 11.1613 24.7226 11.5806C25.7548 12.7226 26.3871 13.6129 26.3871 15.3806C26.3871 21.6065 22.5871 22.1032 18.9806 22.5097C19.5742 23.0194 20.0774 23.9871 20.0774 25.5032C20.0774 27.6774 20.0581 30.3677 20.0581 30.8968C20.0581 31.3161 20.3548 31.8258 21.1742 31.6774C27.6258 29.5355 32 23.4129 32 16.2581C32 7.30968 24.7419 0.516129 15.7935 0.516129ZM6.27097 22.7677C6.1871 22.8323 6.20645 22.9806 6.31613 23.1032C6.41935 23.2065 6.56774 23.2516 6.65161 23.1677C6.73548 23.1032 6.71613 22.9548 6.60645 22.8323C6.50323 22.729 6.35484 22.6839 6.27097 22.7677ZM5.57419 22.2452C5.52903 22.329 5.59355 22.4323 5.72258 22.4968C5.82581 22.5613 5.95484 22.5419 6 22.4516C6.04516 22.3677 5.98064 22.2645 5.85161 22.2C5.72258 22.1613 5.61935 22.1806 5.57419 22.2452ZM7.66452 24.5419C7.56129 24.6258 7.6 24.8194 7.74839 24.9419C7.89677 25.0903 8.08387 25.1097 8.16774 25.0065C8.25161 24.9226 8.2129 24.729 8.08387 24.6065C7.94194 24.4581 7.74839 24.4387 7.66452 24.5419ZM6.92903 23.5935C6.82581 23.6581 6.82581 23.8258 6.92903 23.9742C7.03226 24.1226 7.20645 24.1871 7.29032 24.1226C7.39355 24.0387 7.39355 23.871 7.29032 23.7226C7.2 23.5742 7.03226 23.5097 6.92903 23.5935Z" fill="black"/>
</svg>
