<svg viewBox="0 0 16 17" xmlns="http://www.w3.org/2000/svg">
<path d="M14.8571 0.142853H1.13929C0.510714 0.142853 0 0.66071 0 1.29642V14.9893C0 15.625 0.510714 16.1429 1.13929 16.1429H14.8571C15.4857 16.1429 16 15.625 16 14.9893V1.29642C16 0.66071 15.4857 0.142853 14.8571 0.142853ZM4.83571 13.8571H2.46429V6.22143H4.83929V13.8571H4.83571ZM3.65 5.17857C2.88929 5.17857 2.275 4.56071 2.275 3.80357C2.275 3.04642 2.88929 2.42857 3.65 2.42857C4.40714 2.42857 5.025 3.04642 5.025 3.80357C5.025 4.56428 4.41071 5.17857 3.65 5.17857V5.17857ZM13.725 13.8571H11.3536V10.1429C11.3536 9.25714 11.3357 8.11785 10.1214 8.11785C8.88571 8.11785 8.69643 9.08214 8.69643 10.0786V13.8571H6.325V6.22143H8.6V7.26428H8.63214C8.95 6.66428 9.725 6.03214 10.8786 6.03214C13.2786 6.03214 13.725 7.61428 13.725 9.67143V13.8571V13.8571Z" fill="black"/>
</svg>
