<svg viewBox="0 0 21 20" xmlns="http://www.w3.org/2000/svg">
<path d="M19.0714 0H1.92411C1.13839 0 0.5 0.647322 0.5 1.44196V18.558C0.5 19.3527 1.13839 20 1.92411 20H19.0714C19.8571 20 20.5 19.3527 20.5 18.558V1.44196C20.5 0.647322 19.8571 0 19.0714 0ZM6.54464 17.1429H3.58036V7.59821H6.54911V17.1429H6.54464ZM5.0625 6.29464C4.11161 6.29464 3.34375 5.52232 3.34375 4.57589C3.34375 3.62946 4.11161 2.85714 5.0625 2.85714C6.00893 2.85714 6.78125 3.62946 6.78125 4.57589C6.78125 5.52679 6.01339 6.29464 5.0625 6.29464V6.29464ZM17.6562 17.1429H14.692V12.5C14.692 11.3929 14.6696 9.96875 13.1518 9.96875C11.6071 9.96875 11.3705 11.1741 11.3705 12.4196V17.1429H8.40625V7.59821H11.25V8.90179H11.2902C11.6875 8.15179 12.6563 7.36161 14.0982 7.36161C17.0982 7.36161 17.6562 9.33929 17.6562 11.9107V17.1429V17.1429Z" fill="black"/>
</svg>
