<svg width="32" height="37" viewBox="0 0 32 37" xmlns="http://www.w3.org/2000/svg">
<path d="M29.7143 2.28572H2.27857C1.02143 2.28572 0 3.32144 0 4.59286V31.9786C0 33.25 1.02143 34.2857 2.27857 34.2857H29.7143C30.9714 34.2857 32 33.25 32 31.9786V4.59286C32 3.32144 30.9714 2.28572 29.7143 2.28572ZM9.67143 29.7143H4.92857V14.4429H9.67857V29.7143H9.67143ZM7.3 12.3572C5.77857 12.3572 4.55 11.1214 4.55 9.60715C4.55 8.09286 5.77857 6.85715 7.3 6.85715C8.81429 6.85715 10.05 8.09286 10.05 9.60715C10.05 11.1286 8.82143 12.3572 7.3 12.3572V12.3572ZM27.45 29.7143H22.7071V22.2857C22.7071 20.5143 22.6714 18.2357 20.2429 18.2357C17.7714 18.2357 17.3929 20.1643 17.3929 22.1572V29.7143H12.65V14.4429H17.2V16.5286H17.2643C17.9 15.3286 19.45 14.0643 21.7571 14.0643C26.5571 14.0643 27.45 17.2286 27.45 21.3429V29.7143V29.7143Z" fill="black"/>
</svg>
