<svg width="194" height="37" viewBox="0 0 194 37" fill="none" xmlns="http://www.w3.org/2000/svg">
<g clip-path="url(#clip0_17_9)">
<path d="M27.7711 13.0513C27.4125 12.9318 27.0539 12.8189 26.6953 12.7126C26.7551 12.4669 26.8082 12.2212 26.8613 11.9755C27.6781 8.01769 27.1402 4.83683 25.3273 3.78761C23.5809 2.78488 20.732 3.82746 17.85 6.33761C17.5645 6.58331 17.2855 6.8423 17.0199 7.10128C16.8406 6.92863 16.6547 6.75597 16.4688 6.58996C13.4473 3.90714 10.4191 2.77824 8.60625 3.8341C6.86641 4.84347 6.34844 7.83839 7.07891 11.5837C7.15195 11.9556 7.23164 12.3208 7.32461 12.6927C6.89961 12.8122 6.48125 12.945 6.08945 13.0845C2.54336 14.313 0 16.2521 0 18.2575C0 20.3294 2.70938 22.4079 6.39492 23.6696C6.69375 23.7692 6.99258 23.8689 7.29805 23.9552C7.19844 24.3536 7.11211 24.7454 7.03242 25.1505C6.33516 28.836 6.87969 31.7579 8.61953 32.7607C10.4125 33.7966 13.4273 32.7341 16.3625 30.1642C16.5949 29.9583 16.8273 29.7458 17.0598 29.52C17.352 29.8056 17.6574 30.0778 17.9629 30.3435C20.8051 32.7872 23.6141 33.7767 25.3473 32.7739C27.1402 31.738 27.7246 28.597 26.9676 24.772C26.9078 24.4798 26.8414 24.181 26.7684 23.8755C26.9809 23.8157 27.1867 23.7493 27.3926 23.6829C31.2242 22.4146 34 20.3626 34 18.2575C34 16.2454 31.3836 14.2931 27.7711 13.0513V13.0513ZM18.7863 7.41339C21.2566 5.26183 23.5609 4.41847 24.6102 5.02277C25.7324 5.66691 26.1641 8.27003 25.4602 11.69C25.4137 11.9157 25.3672 12.1349 25.3074 12.354C23.8332 12.022 22.3391 11.7829 20.8383 11.6501C19.975 10.415 19.032 9.23292 18.0094 8.12394C18.2684 7.87824 18.5207 7.64581 18.7863 7.41339V7.41339ZM11.1031 21.704C11.4418 22.2817 11.7871 22.8595 12.1523 23.4239C11.1164 23.311 10.0871 23.145 9.07109 22.9259C9.36328 21.9696 9.72852 20.9802 10.1535 19.9708C10.459 20.5552 10.7711 21.1329 11.1031 21.704V21.704ZM9.09102 13.7153C10.0473 13.5028 11.0633 13.3302 12.1191 13.1974C11.7672 13.7485 11.4219 14.313 11.0965 14.8841C10.7711 15.4485 10.4523 16.0263 10.1535 16.6107C9.73516 15.6212 9.3832 14.6517 9.09102 13.7153ZM10.9105 18.2907C11.3488 17.3743 11.827 16.4778 12.3316 15.5946C12.8363 14.7114 13.3809 13.8548 13.952 13.0114C14.948 12.9384 15.9641 12.8985 17 12.8985C18.0359 12.8985 19.0586 12.9384 20.048 13.0114C20.6125 13.8482 21.1504 14.7048 21.6617 15.5814C22.173 16.4579 22.6512 17.3544 23.1027 18.2642C22.6578 19.1806 22.1797 20.0837 21.6684 20.9735C21.1637 21.8567 20.6258 22.7134 20.0613 23.5634C19.0719 23.6364 18.0426 23.6696 17 23.6696C15.9574 23.6696 14.948 23.6364 13.9719 23.5767C13.3941 22.7333 12.8496 21.87 12.3383 20.9868C11.827 20.1036 11.3555 19.2071 10.9105 18.2907ZM22.9035 21.6907C23.2422 21.1064 23.5609 20.5153 23.873 19.9177C24.298 20.8806 24.6699 21.8567 24.9953 22.8595C23.966 23.0919 22.9234 23.2712 21.8742 23.3907C22.2328 22.8329 22.5715 22.2618 22.9035 21.6907ZM23.8598 16.6107C23.5477 16.0263 23.2289 15.4419 22.8969 14.8708C22.5715 14.3064 22.2328 13.7485 21.8809 13.1974C22.95 13.3302 23.9727 13.5095 24.9289 13.7286C24.6234 14.7114 24.2648 15.6677 23.8598 16.6107V16.6107ZM17.0133 9.13996C17.7105 9.89699 18.368 10.6939 18.9789 11.5173C17.6641 11.4575 16.3426 11.4575 15.0277 11.5173C15.6785 10.6607 16.3492 9.86378 17.0133 9.13996ZM9.31016 5.06925C10.4258 4.41847 12.9027 5.34816 15.5125 7.6591C15.6785 7.80519 15.8445 7.96456 16.0172 8.12394C14.9879 9.23292 14.0383 10.415 13.1684 11.6501C11.6676 11.7829 10.1801 12.0153 8.70586 12.3407C8.61953 12.0021 8.54648 11.6568 8.47344 11.3114C7.84922 8.09738 8.26094 5.67355 9.31016 5.06925V5.06925ZM7.6832 22.5739C7.4043 22.4942 7.13203 22.4079 6.85977 22.315C5.44531 21.87 3.83828 21.1661 2.67617 20.2431C2.00547 19.7782 1.55391 19.061 1.42773 18.2575C1.42773 17.0423 3.52617 15.4884 6.5543 14.4325C6.93281 14.2997 7.31797 14.1802 7.70312 14.0673C8.15469 15.5083 8.69922 16.9228 9.33008 18.2907C8.69258 19.6786 8.14141 21.113 7.6832 22.5739V22.5739ZM15.4262 29.0817C14.3305 30.0845 13.0621 30.8814 11.6809 31.4259C10.9437 31.7778 10.0938 31.811 9.33672 31.5122C8.28086 30.9013 7.84258 28.5571 8.44023 25.4028C8.51328 25.031 8.59297 24.6591 8.68594 24.2939C10.1734 24.6126 11.6742 24.8317 13.1949 24.9446C14.0715 26.1864 15.0344 27.3751 16.0637 28.4907C15.8512 28.6966 15.6387 28.8958 15.4262 29.0817ZM17.0531 27.4681C16.3758 26.7376 15.6984 25.9275 15.041 25.0575C15.6785 25.0841 16.3359 25.0974 17 25.0974C17.684 25.0974 18.3547 25.0841 19.0187 25.0509C18.4078 25.8942 17.7504 26.6978 17.0531 27.4681V27.4681ZM25.7324 29.4603C25.6727 30.2704 25.2742 31.0275 24.6367 31.5388C23.5809 32.1497 21.3297 31.3528 18.8992 29.2677C18.6203 29.0286 18.3414 28.7696 18.0559 28.504C19.0719 27.3817 20.0082 26.1931 20.8582 24.9446C22.3789 24.8185 23.893 24.586 25.3871 24.2474C25.4535 24.5196 25.5133 24.7919 25.5664 25.0575C25.8918 26.4919 25.9449 27.986 25.7324 29.4603V29.4603ZM26.941 22.3216C26.7551 22.3814 26.5691 22.4411 26.3766 22.4942C25.9117 21.0466 25.3406 19.6321 24.6832 18.2575C25.3207 16.9028 25.8586 15.5083 26.3102 14.0806C26.6555 14.1802 26.9875 14.2864 27.3063 14.3927C30.4008 15.4552 32.5723 17.0357 32.5723 18.2442C32.5723 19.5458 30.2547 21.2259 26.941 22.3216ZM17 21.3255C18.6801 21.3255 20.0414 19.9642 20.0414 18.2841C20.0414 16.604 18.6801 15.2427 17 15.2427C15.3199 15.2427 13.9586 16.604 13.9586 18.2841C13.9586 19.9642 15.3199 21.3255 17 21.3255Z" fill="#929292"/>
<g clip-path="url(#clip1_17_9)">
<path d="M48.7733 2.28571H50.216V3.71105H51.536V2.28571H52.9787V6.60038H51.536V5.15638H50.216V6.60038H48.7747V2.28571H48.7733ZM54.8747 3.71638H53.6053V2.28571H57.588V3.71638H56.3173V6.60038H54.8747V3.71638V3.71638ZM58.22 2.28571H59.724L60.6493 3.80171L61.5733 2.28571H63.0773V6.60038H61.6413V4.46171L60.6493 5.99638H60.624L59.6307 4.46305V6.60038H58.22V2.28571V2.28571ZM63.7947 2.28571H65.2387V5.17505H67.2653V6.60171H63.7947V2.28571V2.28571Z" fill="#929292"/>
<path fill-rule="evenodd" clip-rule="evenodd" d="M48.728 31.715L46 8.57504H70L67.2707 31.7124L57.9867 34.2857L48.728 31.715ZM54.244 19.0484L53.9853 16.1417H64.8453L65.0987 13.3044H50.8853L51.6507 21.887H61.4867L61.1573 25.567L57.992 26.423H57.9893L54.8293 25.5697L54.6267 23.307H51.776L52.1733 27.763L57.9867 29.3764L63.8093 27.763L64.5187 19.811L64.588 19.0497H54.244V19.0484Z" fill="#929292"/>
</g>
<path d="M82 2.28571V34.2857H114V2.28571H82ZM99.4143 27.2429C99.4143 30.3571 97.5857 31.7786 94.9214 31.7786C92.5143 31.7786 91.1214 30.5357 90.4071 29.0286L92.8571 27.55C93.3286 28.3857 93.7571 29.0929 94.7929 29.0929C95.7786 29.0929 96.4071 28.7071 96.4071 27.2V16.9786H99.4143V27.2429V27.2429ZM106.529 31.7786C103.736 31.7786 101.929 30.45 101.05 28.7071L103.5 27.2929C104.143 28.3429 104.986 29.1214 106.464 29.1214C107.707 29.1214 108.507 28.5 108.507 27.6357C108.507 26.6071 107.693 26.2429 106.314 25.6357L105.564 25.3143C103.393 24.3929 101.957 23.2286 101.957 20.7786C101.957 18.5214 103.679 16.8071 106.357 16.8071C108.271 16.8071 109.643 17.4714 110.629 19.2143L108.286 20.7143C107.771 19.7929 107.214 19.4286 106.35 19.4286C105.471 19.4286 104.914 19.9857 104.914 20.7143C104.914 21.6143 105.471 21.9786 106.764 22.5429L107.514 22.8643C110.071 23.9571 111.507 25.0786 111.507 27.5929C111.507 30.2929 109.379 31.7786 106.529 31.7786V31.7786Z" fill="#929292"/>
<path d="M135.264 19.15H140.707L137.986 12.6071L135.264 19.15ZM137.986 2.28571L123.143 7.6L125.414 27.2929L137.986 34.2857L150.557 27.2929L152.829 7.6L137.986 2.28571ZM147.286 26.7H143.814L141.943 22.0286H134.043L132.171 26.7H128.693L137.986 5.82143L147.286 26.7Z" fill="#929292"/>
<g clip-path="url(#clip2_17_9)">
<path d="M193.396 16.8607L179.429 2.88929C179.042 2.50296 178.518 2.28595 177.971 2.28595C177.424 2.28595 176.9 2.50296 176.514 2.88929L173.609 5.79143L177.289 9.47143C179.222 8.81857 181.052 10.6693 180.389 12.5914L183.936 16.1386C186.381 15.2957 188.306 18.3529 186.469 20.1879C184.577 22.08 181.454 19.9829 182.469 17.5207L179.159 14.2143V22.9179C180.966 23.8136 180.749 25.9071 179.807 26.8464C179.347 27.3061 178.724 27.5643 178.073 27.5643C177.423 27.5643 176.799 27.3061 176.339 26.8464C175.084 25.5893 175.549 23.4957 177.143 22.8464V14.0607C175.657 13.4529 175.386 11.865 175.811 10.8464L172.184 7.21428L162.604 16.7957C162.217 17.1823 162 17.7066 162 18.2532C162 18.7999 162.217 19.3241 162.604 19.7107L176.576 33.6821C176.962 34.0684 177.486 34.2854 178.033 34.2854C178.579 34.2854 179.103 34.0684 179.49 33.6821L193.396 19.7757C193.783 19.3891 194 18.8649 194 18.3182C194 17.7716 193.783 17.2473 193.396 16.8607V16.8607Z" fill="#929292"/>
</g>
</g>
<defs>
<clipPath id="clip0_17_9">
<rect width="194" height="36.5714" fill="white"/>
</clipPath>
<clipPath id="clip1_17_9">
<rect width="32" height="32" fill="white" transform="translate(42 2.28571)"/>
</clipPath>
<clipPath id="clip2_17_9">
<rect width="32" height="36.5714" fill="white" transform="translate(162)"/>
</clipPath>
</defs>
</svg>
