<svg width="24" height="9" viewBox="0 0 24 9" fill="none" xmlns="http://www.w3.org/2000/svg">
<path d="M4.26465 8.16113C4.11426 8.16113 4.02832 8.11816 4.00684 8.03223L4.0498 5.90527H3.26562L1.97656 5.89453H1.20312C1.11003 5.89453 1.01693 5.88021 0.923828 5.85156C0.830729 5.82292 0.78418 5.74772 0.78418 5.62598C1.16374 5.139 1.53255 4.64844 1.89062 4.1543C3.0293 2.60026 3.8099 1.82324 4.23242 1.82324C4.70508 1.82324 4.94141 2.65397 4.94141 4.31543C4.94141 4.53027 4.93783 4.75944 4.93066 5.00293L7.30469 4.9707C7.30469 5.1569 7.27962 5.29297 7.22949 5.37891C7.18652 5.46484 7.14714 5.51139 7.11133 5.51855L5.12402 5.67969C5.02376 5.95898 4.96289 6.27409 4.94141 6.625C4.9056 7.19792 4.8877 7.67773 4.8877 8.06445L4.26465 8.16113ZM4.0498 2.82227C3.89225 3.03711 3.69889 3.24837 3.46973 3.45605C3.24772 3.65658 3.0293 3.86068 2.81445 4.06836C2.59961 4.26888 2.40625 4.47298 2.23438 4.68066C2.0625 4.88835 1.95508 5.10319 1.91211 5.3252C1.96224 5.3252 2.07324 5.3252 2.24512 5.3252C2.41699 5.3252 2.66406 5.30729 2.98633 5.27148C3.30859 5.22852 3.66309 5.18555 4.0498 5.14258V2.82227ZM8.7334 7.52734C8.47559 7.36263 8.27148 7.15853 8.12109 6.91504C7.9707 6.66439 7.89551 6.39583 7.89551 6.10938C7.89551 5.82292 7.93848 5.48275 8.02441 5.08887C8.11035 4.69499 8.21777 4.32975 8.34668 3.99316C8.48275 3.65658 8.64388 3.33073 8.83008 3.01562C9.02344 2.70052 9.24186 2.42122 9.48535 2.17773C10.0225 1.65495 10.6312 1.39355 11.3115 1.39355C12.2282 1.39355 12.93 1.73014 13.417 2.40332C13.8682 3.01204 14.0938 3.76758 14.0938 4.66992C14.0938 5.73698 13.7536 6.56771 13.0732 7.16211C12.4072 7.73503 11.5228 8.02148 10.4199 8.02148C9.78255 8.02148 9.22038 7.85677 8.7334 7.52734ZM8.5293 6.03418C8.5293 7.00098 9.2168 7.48438 10.5918 7.48438C11.5801 7.48438 12.3213 7.23014 12.8154 6.72168C13.3167 6.21322 13.5674 5.48991 13.5674 4.55176C13.5674 4.52311 13.5674 4.49447 13.5674 4.46582C13.5674 3.64225 13.3633 3.01204 12.9551 2.5752C12.5469 2.13835 11.9883 1.91992 11.2793 1.91992C11.2005 1.91992 11.1289 1.91992 11.0645 1.91992C11.0072 1.91992 10.9535 1.91992 10.9033 1.91992C10.5238 1.91992 10.1478 2.17773 9.77539 2.69336C9.42448 3.16602 9.1237 3.77116 8.87305 4.50879C8.64388 5.18197 8.5293 5.69043 8.5293 6.03418Z" fill="black"/>
<path d="M19.8545 8.20508C19.6631 8.20508 19.5537 8.15039 19.5264 8.04102L19.5811 5.33398H18.583L16.9424 5.32031H15.958C15.8395 5.32031 15.721 5.30208 15.6025 5.26562C15.484 5.22917 15.4248 5.13346 15.4248 4.97852C15.9079 4.35872 16.3773 3.73438 16.833 3.10547C18.2822 1.1276 19.2757 0.138672 19.8135 0.138672C20.415 0.138672 20.7158 1.19596 20.7158 3.31055C20.7158 3.58398 20.7113 3.87565 20.7021 4.18555L23.7236 4.14453C23.7236 4.38151 23.6917 4.55469 23.6279 4.66406C23.5732 4.77344 23.5231 4.83268 23.4775 4.8418L20.9482 5.04688C20.8206 5.40234 20.7432 5.80339 20.7158 6.25C20.6702 6.97917 20.6475 7.58984 20.6475 8.08203L19.8545 8.20508ZM19.5811 1.41016C19.3805 1.68359 19.1344 1.95247 18.8428 2.2168C18.5602 2.47201 18.2822 2.73177 18.0088 2.99609C17.7354 3.2513 17.4893 3.51107 17.2705 3.77539C17.0518 4.03971 16.915 4.31315 16.8604 4.5957C16.9242 4.5957 17.0654 4.5957 17.2842 4.5957C17.5029 4.5957 17.8174 4.57292 18.2275 4.52734C18.6377 4.47266 19.0889 4.41797 19.5811 4.36328V1.41016Z" fill="#E14F4F"/>
</svg>
