<svg width="67" height="10" viewBox="0 0 67 10" fill="none" xmlns="http://www.w3.org/2000/svg">
<path d="M6.45605 5.41211C6.49186 5.41211 6.50977 5.50879 6.50977 5.70215C6.50977 5.89551 6.51693 6.02799 6.53125 6.09961L2.84668 6.55078L3.04004 8.93555L2.16992 8.89258C2.16992 8.24805 2.09831 7.51042 1.95508 6.67969L0.558594 7.2168C0.465495 7.2168 0.386719 7.16309 0.322266 7.05566C0.207682 6.86947 0.150391 6.70117 0.150391 6.55078L1.7832 5.9707C1.63997 4.73893 1.56836 3.73991 1.56836 2.97363C1.56836 2.2002 1.63281 1.59863 1.76172 1.16895C1.89062 0.739258 2.07682 0.452799 2.32031 0.30957C2.57096 0.15918 2.83594 0.0839844 3.11523 0.0839844C3.39453 0.0839844 3.67741 0.144857 3.96387 0.266602C4.25749 0.388346 4.53678 0.542318 4.80176 0.728516C5.06673 0.914714 5.29232 1.12598 5.47852 1.3623C5.66471 1.59147 5.75781 1.81706 5.75781 2.03906C5.75781 2.21094 5.73991 2.33268 5.7041 2.4043C5.41764 2.00326 5.07031 1.64518 4.66211 1.33008C4.17513 0.957682 3.7168 0.771484 3.28711 0.771484C2.87891 0.771484 2.60677 1.06152 2.4707 1.6416C2.40625 1.94238 2.37402 2.36849 2.37402 2.91992C2.37402 3.46419 2.38835 3.96549 2.41699 4.42383C2.44564 4.875 2.53158 5.32975 2.6748 5.78809C3.11882 5.78809 3.61654 5.7487 4.16797 5.66992C5.22786 5.50521 5.99056 5.41927 6.45605 5.41211ZM11.1611 7.87207C11.4548 7.75033 11.7412 7.63932 12.0205 7.53906C12.2998 7.4388 12.5648 7.38867 12.8154 7.38867C13.0732 7.38867 13.2021 7.46745 13.2021 7.625C13.2021 7.66081 13.1914 7.7181 13.1699 7.79688C13.1556 7.86849 13.0589 7.95801 12.8799 8.06543C12.708 8.16569 12.4932 8.26237 12.2354 8.35547C11.9847 8.44857 11.709 8.53451 11.4082 8.61328C11.1074 8.69206 10.8138 8.76009 10.5273 8.81738C9.93294 8.93913 9.51042 9 9.25977 9C9.00911 9 8.73698 8.97135 8.44336 8.91406C8.1569 8.85677 7.88835 8.76367 7.6377 8.63477C7.05762 8.33398 6.76758 7.88997 6.76758 7.30273C6.76758 7.25977 6.76758 7.17383 6.76758 7.04492C6.76758 6.91602 6.82129 6.7334 6.92871 6.49707C7.03613 6.25358 7.19727 6.01367 7.41211 5.77734C7.62695 5.53385 7.8776 5.31185 8.16406 5.11133C8.76562 4.68164 9.39583 4.40234 10.0547 4.27344C10.2839 4.22331 10.4736 4.19824 10.624 4.19824C10.7816 4.19824 10.9105 4.20182 11.0107 4.20898C11.111 4.20898 11.2148 4.21615 11.3223 4.23047C11.4297 4.23763 11.5228 4.2627 11.6016 4.30566C11.7878 4.39876 11.8809 4.58138 11.8809 4.85352C11.8809 5.02539 11.7591 5.19368 11.5156 5.3584C11.4512 5.40137 11.3939 5.44076 11.3438 5.47656C11.3079 5.31185 11.2614 5.1722 11.2041 5.05762C11.1468 4.94303 11.0215 4.88574 10.8281 4.88574C9.98307 5.06478 9.25618 5.33333 8.64746 5.69141C7.95996 6.09961 7.61621 6.5293 7.61621 6.98047C7.61621 7.0306 7.61979 7.08431 7.62695 7.1416C7.62695 7.59993 7.80241 7.92578 8.15332 8.11914C8.41829 8.26237 8.75846 8.33398 9.17383 8.33398C9.59635 8.33398 9.96159 8.28743 10.2695 8.19434C10.5775 8.09408 10.8747 7.98665 11.1611 7.87207ZM14.0508 6.95898C14.0508 6.11393 14.416 5.43359 15.1465 4.91797C15.7266 4.50977 16.4248 4.2627 17.2412 4.17676C17.2842 4.17676 17.3844 4.17676 17.542 4.17676C17.6995 4.17676 17.9108 4.22331 18.1758 4.31641C18.763 4.51693 19.1641 4.87142 19.3789 5.37988C19.4648 5.5804 19.5078 5.75228 19.5078 5.89551C19.5078 6.03158 19.5042 6.12826 19.4971 6.18555C19.4971 7.08073 19.1569 7.78613 18.4766 8.30176C17.8464 8.77441 17.0586 9.01074 16.1133 9.01074C15.4329 9.01074 14.9173 8.85319 14.5664 8.53809C14.2227 8.22298 14.0508 7.69661 14.0508 6.95898ZM14.792 7.2168C14.792 7.66081 14.9102 7.96159 15.1465 8.11914C15.3255 8.23372 15.6263 8.29102 16.0488 8.29102C16.4714 8.29102 16.8438 8.25879 17.166 8.19434C17.4883 8.12988 17.7747 8.01888 18.0254 7.86133C18.5625 7.51758 18.8311 6.98405 18.8311 6.26074C18.8311 5.83105 18.7165 5.48014 18.4873 5.20801C18.2367 4.91439 17.9072 4.76758 17.499 4.76758C17.2197 4.81771 16.9368 4.87142 16.6504 4.92871C16.3711 4.986 16.1061 5.09701 15.8555 5.26172C15.3112 5.61263 14.9567 6.26432 14.792 7.2168ZM24.1592 6.64746C24.1592 5.79525 24.1126 5.16862 24.0195 4.76758C24.0768 4.66016 23.9909 4.60645 23.7617 4.60645C23.5182 4.60645 23.2031 4.66732 22.8164 4.78906C22.4297 4.91081 22.1146 5.03255 21.8711 5.1543C21.291 5.43359 20.9688 5.70573 20.9043 5.9707V8.89258H20.1846C20.0915 8.64909 20.0449 7.96517 20.0449 6.84082C20.0449 5.83822 20.0628 5.10059 20.0986 4.62793C20.1416 4.15527 20.1738 3.88672 20.1953 3.82227C20.3815 3.70052 20.5319 3.63965 20.6465 3.63965C20.8255 3.63965 20.915 3.85091 20.915 4.27344C20.915 4.43815 20.9043 4.59928 20.8828 4.75684C20.8685 4.90723 20.8613 5.01107 20.8613 5.06836C22.0215 4.21615 22.9202 3.79004 23.5576 3.79004C24.2809 3.79004 24.6927 4.3737 24.793 5.54102C24.8359 5.94922 24.8574 6.51497 24.8574 7.23828L24.8467 8.08691C24.8467 8.40202 24.8538 8.70638 24.8682 9C24.7965 9.04297 24.7393 9.06445 24.6963 9.06445C24.6748 9.05729 24.6283 9.04655 24.5566 9.03223C24.485 9.0179 24.3919 9.00716 24.2773 9C24.2057 8.71354 24.1663 8.4235 24.1592 8.12988C24.152 7.8291 24.1484 7.55339 24.1484 7.30273L24.1592 6.64746ZM27.0918 7.96875L27.1133 6.25C27.1133 5.97786 27.0882 5.74512 27.0381 5.55176H25.373L25.3516 4.81055H26.9629V2.03906C26.9844 1.97461 27.0273 1.91016 27.0918 1.8457C27.1921 1.74544 27.2744 1.69531 27.3389 1.69531C27.4105 1.69531 27.4714 1.70247 27.5215 1.7168C27.5716 1.73112 27.6253 1.78125 27.6826 1.86719C27.7972 2.33984 27.8545 3.05241 27.8545 4.00488C27.8545 4.24121 27.8652 4.47396 27.8867 4.70312C28.1159 4.67448 28.3451 4.66016 28.5742 4.66016C28.5742 4.66016 28.7604 4.66016 29.1328 4.66016C29.2689 4.66016 29.3942 4.65299 29.5088 4.63867L29.4766 5.41211L27.9082 5.36914L27.9619 9.0752C27.833 9.13249 27.722 9.16113 27.6289 9.16113C27.2708 9.16113 27.0918 8.76367 27.0918 7.96875ZM35.1914 5.0791C34.8906 4.86426 34.5039 4.75684 34.0312 4.75684C33.5872 4.75684 33.1755 4.83919 32.7959 5.00391C32.0798 5.30469 31.5892 5.69141 31.3242 6.16406C31.2096 6.37891 31.1523 6.60807 31.1523 6.85156C31.1523 6.89453 31.1523 7.01628 31.1523 7.2168C31.1523 7.41016 31.1882 7.67513 31.2598 8.01172C31.3314 8.34115 31.3672 8.67773 31.3672 9.02148C31.2168 9.02865 31.0951 9.04655 31.002 9.0752C30.9089 9.10384 30.8301 9.11816 30.7656 9.11816C30.7012 9.11816 30.6439 9.08952 30.5938 9.03223C30.5508 8.97493 30.5007 8.86393 30.4434 8.69922C30.4362 8.65625 30.4219 8.53451 30.4004 8.33398C30.3789 8.13346 30.3503 7.88997 30.3145 7.60352C30.2858 7.31706 30.25 7.00553 30.207 6.66895C30.1712 6.3252 30.1354 5.98861 30.0996 5.65918C30.0208 4.94303 29.96 4.41667 29.917 4.08008C29.917 3.9082 30.0423 3.82227 30.293 3.82227C30.4434 3.82227 30.5615 3.88672 30.6475 4.01562C30.7334 4.13737 30.8014 4.2806 30.8516 4.44531C30.9017 4.60286 30.9339 4.76042 30.9482 4.91797C30.9697 5.07552 30.9876 5.18652 31.002 5.25098C31.9473 4.40592 33.1217 3.9834 34.5254 3.9834C34.6829 3.9834 34.8477 3.98698 35.0195 3.99414C35.0625 3.98698 35.1162 3.9834 35.1807 3.9834C35.2451 3.9834 35.3096 4.02637 35.374 4.1123C35.4528 4.21257 35.4922 4.33431 35.4922 4.47754C35.4922 4.83561 35.3919 5.03613 35.1914 5.0791ZM38.1777 8.24805C38.8079 8.24805 39.7568 7.96159 41.0244 7.38867C41.1032 7.38867 41.1676 7.41732 41.2178 7.47461C41.2679 7.52474 41.293 7.58561 41.293 7.65723C41.0065 8.14421 40.4587 8.52376 39.6494 8.7959C38.8402 9.06803 38.0846 9.11458 37.3828 8.93555C36.5879 8.72786 36.1045 8.28027 35.9326 7.59277C35.9183 7.45671 35.9111 7.27409 35.9111 7.04492C35.9111 6.81576 35.9684 6.51497 36.083 6.14258C36.2048 5.76302 36.4089 5.40495 36.6953 5.06836C36.9818 4.73177 37.3184 4.4668 37.7051 4.27344C38.0918 4.08008 38.5036 3.9834 38.9404 3.9834C39.3558 3.9834 39.8213 4.12663 40.3369 4.41309C40.5804 4.54915 40.7738 4.70312 40.917 4.875C41.0602 5.04688 41.1318 5.22233 41.1318 5.40137C41.1318 5.4515 41.1283 5.50163 41.1211 5.55176C41.1068 5.98861 40.8955 6.26432 40.4873 6.37891C40.3083 6.42904 40.1006 6.4541 39.8643 6.4541L38.3174 6.38965C37.8018 6.38965 37.4079 6.50065 37.1357 6.72266C36.9782 6.8444 36.8672 7.02702 36.8027 7.27051C36.9818 7.9222 37.4401 8.24805 38.1777 8.24805ZM40.0898 4.92871C39.9323 4.81413 39.7676 4.73177 39.5957 4.68164C39.4238 4.63151 39.2806 4.60645 39.166 4.60645C39.0514 4.60645 38.8652 4.64583 38.6074 4.72461C38.3496 4.79622 38.1204 4.87858 37.9199 4.97168C37.4258 5.20085 37.1787 5.44076 37.1787 5.69141C37.7516 5.74154 38.1813 5.7666 38.4678 5.7666C39.2627 5.7666 39.7998 5.69857 40.0791 5.5625C40.251 5.49089 40.3369 5.40137 40.3369 5.29395C40.3369 5.16504 40.2546 5.04329 40.0898 4.92871ZM47.2119 5.0791C46.9111 4.86426 46.5244 4.75684 46.0518 4.75684C45.6077 4.75684 45.196 4.83919 44.8164 5.00391C44.1003 5.30469 43.6097 5.69141 43.3447 6.16406C43.2301 6.37891 43.1729 6.60807 43.1729 6.85156C43.1729 6.89453 43.1729 7.01628 43.1729 7.2168C43.1729 7.41016 43.2087 7.67513 43.2803 8.01172C43.3519 8.34115 43.3877 8.67773 43.3877 9.02148C43.2373 9.02865 43.1156 9.04655 43.0225 9.0752C42.9294 9.10384 42.8506 9.11816 42.7861 9.11816C42.7217 9.11816 42.6644 9.08952 42.6143 9.03223C42.5713 8.97493 42.5212 8.86393 42.4639 8.69922C42.4567 8.65625 42.4424 8.53451 42.4209 8.33398C42.3994 8.13346 42.3708 7.88997 42.335 7.60352C42.3063 7.31706 42.2705 7.00553 42.2275 6.66895C42.1917 6.3252 42.1559 5.98861 42.1201 5.65918C42.0413 4.94303 41.9805 4.41667 41.9375 4.08008C41.9375 3.9082 42.0628 3.82227 42.3135 3.82227C42.4639 3.82227 42.582 3.88672 42.668 4.01562C42.7539 4.13737 42.8219 4.2806 42.8721 4.44531C42.9222 4.60286 42.9544 4.76042 42.9688 4.91797C42.9902 5.07552 43.0081 5.18652 43.0225 5.25098C43.9678 4.40592 45.1423 3.9834 46.5459 3.9834C46.7035 3.9834 46.8682 3.98698 47.04 3.99414C47.083 3.98698 47.1367 3.9834 47.2012 3.9834C47.2656 3.9834 47.3301 4.02637 47.3945 4.1123C47.4733 4.21257 47.5127 4.33431 47.5127 4.47754C47.5127 4.83561 47.4124 5.03613 47.2119 5.0791ZM52.2285 7.2168C51.6914 8.06185 50.9753 8.58464 50.0801 8.78516C49.8724 8.82812 49.6826 8.84961 49.5107 8.84961C49.346 8.84961 49.2064 8.84961 49.0918 8.84961C48.9844 8.84245 48.8626 8.82454 48.7266 8.7959C48.5905 8.76725 48.4652 8.7207 48.3506 8.65625C48.0856 8.50586 47.9531 8.2946 47.9531 8.02246C47.9245 7.89355 47.9102 7.75033 47.9102 7.59277C47.9102 7.42806 47.946 7.21322 48.0176 6.94824C48.0892 6.68327 48.2181 6.39681 48.4043 6.08887C48.5977 5.78092 48.8304 5.49805 49.1025 5.24023C49.6683 4.69596 50.2806 4.34505 50.9395 4.1875C51.1328 4.14453 51.3083 4.12305 51.4658 4.12305C51.6305 4.12305 51.7773 4.13379 51.9062 4.15527C52.3216 4.15527 52.6009 4.43815 52.7441 5.00391C52.8372 5.36198 52.891 5.86328 52.9053 6.50781C52.9268 7.14518 52.9447 7.63932 52.959 7.99023C52.9805 8.33398 53.027 8.64909 53.0986 8.93555H52.4648C52.4362 8.74219 52.4147 8.57031 52.4004 8.41992C52.3861 8.26953 52.3717 8.12988 52.3574 8.00098C52.3216 7.7002 52.2786 7.4388 52.2285 7.2168ZM52.1855 5.55176C52.1855 5.13639 51.9814 4.92871 51.5732 4.92871C51.5231 4.92155 51.473 4.91797 51.4229 4.91797C50.9001 4.91797 50.3486 5.16862 49.7686 5.66992C49.4964 5.89909 49.2637 6.1569 49.0703 6.44336C48.7839 6.85156 48.6406 7.2168 48.6406 7.53906C48.6406 7.96159 48.8841 8.21224 49.3711 8.29102C50.0156 8.27669 50.6315 7.98307 51.2188 7.41016C51.4694 7.15951 51.6771 6.88737 51.8418 6.59375C52.071 6.19987 52.1855 5.85254 52.1855 5.55176ZM57.2773 6.22852C58.0651 6.22852 58.459 6.42904 58.459 6.83008C58.459 7.13086 58.2406 7.48177 57.8037 7.88281C57.152 8.47721 56.2747 8.95345 55.1719 9.31152C55.1217 9.31152 55.0645 9.26139 55 9.16113C54.9427 9.06087 54.8962 8.98568 54.8604 8.93555C54.8317 8.87826 54.8102 8.84245 54.7959 8.82812C55.6195 8.55599 56.2962 8.22656 56.8262 7.83984C57.1842 7.58203 57.3633 7.37077 57.3633 7.20605C57.3633 7.04134 57.152 6.95898 56.7295 6.95898C56.307 6.95898 55.6875 7.05924 54.8711 7.25977C54.4987 7.24544 54.1764 7.11296 53.9043 6.8623C53.668 6.6403 53.5498 6.41829 53.5498 6.19629C53.5498 5.96712 53.6143 5.75944 53.7432 5.57324C53.8721 5.37988 54.0439 5.20085 54.2588 5.03613C54.4736 4.87142 54.7243 4.72103 55.0107 4.58496C55.7126 4.24837 56.4395 4.08008 57.1914 4.08008C57.4134 4.08008 57.6283 4.10156 57.8359 4.14453C58.0078 4.14453 58.1081 4.21973 58.1367 4.37012C58.1654 4.52051 58.1797 4.76758 58.1797 5.11133C57.7572 4.91797 57.2809 4.82129 56.751 4.82129C56.0921 4.82129 55.5479 4.95378 55.1182 5.21875C54.6742 5.47656 54.445 5.81315 54.4307 6.22852C54.4307 6.42904 54.5775 6.5293 54.8711 6.5293L55.6553 6.44336C56.3285 6.30013 56.8691 6.22852 57.2773 6.22852Z" fill="black"/>
<path d="M66.1904 6.7168C66.4912 6.7168 66.6416 6.83073 66.6416 7.05859C66.6416 7.28646 66.5413 7.45508 66.3408 7.56445C66.1403 7.66471 65.9124 7.73763 65.6572 7.7832C65.4111 7.82878 65.1787 7.85612 64.96 7.86523C64.7412 7.86523 64.5999 7.87435 64.5361 7.89258C64.4814 7.90169 64.3493 7.93815 64.1396 8.00195C63.9391 8.05664 63.6976 8.125 63.415 8.20703C63.1325 8.27995 62.8271 8.36198 62.499 8.45312C61.4691 8.72656 60.6488 8.86328 60.0381 8.86328C59.7282 8.86328 59.5186 8.81771 59.4092 8.72656C59.3089 8.6263 59.2907 8.48958 59.3545 8.31641C60.0381 7.71484 60.749 6.9401 61.4873 5.99219C62.5902 4.57943 63.1416 3.47656 63.1416 2.68359C63.1416 2.52865 63.1188 2.38281 63.0732 2.24609C62.973 1.96354 62.7132 1.78125 62.2939 1.69922C61.8929 1.69922 61.5648 1.78125 61.3096 1.94531C61.0544 2.10938 60.8128 2.29167 60.585 2.49219C60.3662 2.69271 60.1383 2.875 59.9014 3.03906C59.6735 3.20312 59.391 3.28516 59.0537 3.28516C59.0628 2.98438 59.1859 2.69271 59.4229 2.41016C59.8968 1.82682 60.5667 1.40755 61.4326 1.15234C61.7425 1.05208 61.9886 1.00195 62.1709 1.00195C62.3532 1.00195 62.4899 1.00651 62.5811 1.01562C62.9365 1.05208 63.2419 1.17969 63.4971 1.39844C63.7523 1.61719 63.9027 1.95443 63.9482 2.41016C63.9482 3.69531 63.3467 5.12174 62.1436 6.68945C61.8154 7.11784 61.4919 7.51432 61.1729 7.87891C61.2731 7.88802 61.4281 7.89258 61.6377 7.89258C61.8564 7.89258 62.1527 7.84245 62.5264 7.74219C62.9001 7.63281 63.2965 7.50521 63.7158 7.35938C64.1351 7.20443 64.5498 7.05859 64.96 6.92188C65.3701 6.78516 65.7803 6.7168 66.1904 6.7168Z" fill="#E14F4F"/>
</svg>
